<?xml version="1.0" encoding="utf-8"?>
<svg version="1.1" xmlns:xlink="http://www.w3.org/1999/xlink" width="249px" height="211px" xmlns="http://www.w3.org/2000/svg">
  <defs>
    <linearGradient gradientUnits="userSpaceOnUse" x1="188.68599545576174" y1="-63.16889991349985" x2="-139.88811328607673" y2="713.5583311792126" id="LinearGradient4">
      <stop id="Stop5" stop-color="#454d66" offset="0" />
      <stop id="Stop6" stop-color="#02c39a" offset="1" />
    </linearGradient>
  </defs>
  <g transform="matrix(1 0 0 1 55 -92 )">
    <path d="M 130.08363636363637 0.6512345679012346  C 161.02 1.8234567901234644  190.59818181818184 9.117283950617283  211.57454545454544 24.877160493827162  C 232.5509090909091 40.63703703703704  244.92545454545458 64.86296296296297  247.79272727272726 88.95864197530864  C 250.66 113.05432098765431  244.1709090909091 137.01975308641974  231.49454545454546 159.81296296296293  C 218.66727272727272 182.60617283950617  199.80363636363637 204.0969135802469  176.11090909090908 209.30679012345678  C 152.5690909090909 214.51666666666665  124.19818181818182 203.31543209876543  98.0909090909091 192.63518518518518  C 72.13454545454545 181.95493827160493  48.29090909090909 171.66543209876545  29.879999999999995 153.95185185185184  C 11.620000000000005 136.23827160493826  -1.3581818181818268 111.10061728395063  0.4527272727272685 85.70246913580247  C 2.1127272727272812 60.43456790123457  18.71272727272728 34.77592592592593  43.00909090909091 19.537037037037035  C 67.15454545454546 4.298148148148144  99.2981818181818 -0.520987654320995  130.08363636363637 0.6512345679012346  Z " fill-rule="nonzero" fill="url(#LinearGradient4)" stroke="none" transform="matrix(1 0 0 1 -55 92 )" />
  </g>
</svg>