<?xml version="1.0" encoding="utf-8"?>
<svg version="1.1" xmlns:xlink="http://www.w3.org/1999/xlink" width="261px" height="211px" xmlns="http://www.w3.org/2000/svg">
  <defs>
    <linearGradient gradientUnits="userSpaceOnUse" x1="197.77929644158158" y1="-63.16889991349985" x2="-146.62970910709248" y2="713.5583311792126" id="LinearGradient1">
      <stop id="Stop2" stop-color="#309975" stop-opacity="0.996078431372549" offset="0" />
      <stop id="Stop3" stop-color="#02c39a" offset="1" />
    </linearGradient>
  </defs>
  <g transform="matrix(1 0 0 1 67 -114 )">
    <path d="M 136.3527272727273 0.6512345679012346  C 168.78 1.8234567901234644  199.78363636363636 9.117283950617283  221.77090909090907 24.877160493827162  C 243.7581818181818 40.63703703703704  256.7290909090909 64.86296296296297  259.73454545454547 88.95864197530864  C 262.74 113.05432098765431  255.93818181818185 137.01975308641974  242.6509090909091 159.81296296296293  C 229.20545454545456 182.60617283950617  209.43272727272728 204.0969135802469  184.59818181818179 209.30679012345678  C 159.92181818181817 214.51666666666665  130.18363636363637 203.31543209876543  102.81818181818181 192.63518518518518  C 75.61090909090909 181.95493827160493  50.61818181818182 171.66543209876545  31.319999999999997 153.95185185185184  C 12.180000000000005 136.23827160493826  -1.4236363636363725 111.10061728395063  0.47454545454545005 85.70246913580247  C 2.2145454545454633 60.43456790123457  19.614545454545464 34.77592592592593  45.081818181818186 19.537037037037035  C 70.39090909090909 4.298148148148144  104.08363636363636 -0.520987654320995  136.3527272727273 0.6512345679012346  Z " fill-rule="nonzero" fill="url(#LinearGradient1)" stroke="none" transform="matrix(1 0 0 1 -67 114 )" />
  </g>
</svg>