<?xml version="1.0" encoding="utf-8"?>
<svg version="1.1" xmlns:xlink="http://www.w3.org/1999/xlink" width="450px" height="510px" xmlns="http://www.w3.org/2000/svg">
  <g transform="matrix(1 0 0 1 -216 -558 )">
    <path d="M 209.574706694202 4.43102882880541  C 257.47470669420204 13.231028828805393  299.07470669420206 37.73102882880539  328.774706694202 68.93102882880538  C 358.47470669420204 100.03102882880538  376.374706694202 137.93102882880538  399.374706694202 180.7310288288054  C 422.374706694202 223.53102882880535  450.374706694202 271.2310288288054  449.874706694202 321.13102882880537  C 449.374706694202 370.9310288288054  420.274706694202 422.9310288288054  376.47470669420204 458.63102882880537  C 332.774706694202 494.43102882880544  274.374706694202 514.1310288288054  220.47470669420204 507.93102882880544  C 166.574706694202 501.7310288288054  117.27470669420201 469.63102882880537  78.67470669420197 432.13102882880537  C 40.17470669420197 394.63102882880537  12.574706694202007 351.7310288288054  3.5747066942020074 306.83102882880536  C -5.325293305797999 261.9310288288054  4.474706694202013 215.13102882880537  15.874706694202018 165.2310288288054  C 27.274706694202024 115.33102882880539  40.17470669420203 62.531028828805375  73.87470669420202 32.531028828805404  C 107.47470669420204 2.6310288288053982  161.67470669420203 -4.2689711711946075  209.574706694202 4.43102882880541  Z " fill-rule="nonzero" fill="#7cbe1e" stroke="none" transform="matrix(1 0 0 1 216 558 )" />
  </g>
</svg>