<?xml version="1.0" encoding="utf-8"?>
<svg version="1.1" xmlns:xlink="http://www.w3.org/1999/xlink" width="486px" height="518px" xmlns="http://www.w3.org/2000/svg">
  <g transform="matrix(1 0 0 1 127 -655 )">
    <path d="M 228.13364290031154 4.398343498152002  C 273.73364290031157 -7.801656501848015  328.13364290031154 8.29834349815198  371.63364290031154 39.698343498151985  C 415.03364290031163 70.998343498152  447.4336429003115 117.79834349815198  466.8336429003116 170.39834349815197  C 486.13364290031154 222.998343498152  492.5336429003116 281.49834349815194  475.13364290031154 331.49834349815194  C 457.7336429003117 381.49834349815194  416.63364290031154 422.898343498152  370.03364290031163 455.59834349815196  C 323.4336429003116 488.298343498152  271.3336429003116 512.298343498152  215.93364290031155 516.8983434981519  C 160.43364290031155 521.3983434981519  101.63364290031154 506.698343498152  63.13364290031154 471.3983434981519  C 24.633642900311543 435.99834349815194  6.433642900311554 380.198343498152  1.8336429003115313 328.698343498152  C -2.6663570996884687 277.198343498152  6.53364290031152 230.09834349815196  26.633642900311543 192.29834349815198  C 46.83364290031153 154.498343498152  77.93364290031155 125.998343498152  111.83364290031153 91.498343498152  C 145.73364290031157 57.09834349815199  182.53364290031152 16.59834349815199  228.13364290031154 4.398343498152002  Z " fill-rule="nonzero" fill="#309975" stroke="none" transform="matrix(1 0 0 1 -127 655 )" />
  </g>
</svg>