<svg id="Ebene_1" data-name="Ebene 1" xmlns="http://www.w3.org/2000/svg" xmlns:xlink="http://www.w3.org/1999/xlink" viewBox="0 0 600 330"><defs><style>.cls-1,.cls-2,.cls-7{fill:#454d66;}.cls-1,.cls-3,.cls-4,.cls-5{clip-rule:evenodd;}.cls-16,.cls-18,.cls-3{fill:#25336b;}.cls-19,.cls-21,.cls-4{fill:#c8417b;}.cls-10,.cls-5,.cls-6{fill:#2e9975;}.cls-10,.cls-16,.cls-19,.cls-7{fill-rule:evenodd;}.cls-8{clip-path:url(#clip-path);}.cls-9{clip-path:url(#clip-path-2);}.cls-11{clip-path:url(#clip-path-3);}.cls-12{clip-path:url(#clip-path-4);}.cls-13{clip-path:url(#clip-path-5);}.cls-14{clip-path:url(#clip-path-7);}.cls-15{clip-path:url(#clip-path-9);}.cls-17{clip-path:url(#clip-path-11);}.cls-20{clip-path:url(#clip-path-12);}.cls-22{clip-path:url(#clip-path-13);}.cls-23{clip-path:url(#clip-path-14);}.cls-24{clip-path:url(#clip-path-15);}</style><clipPath id="clip-path"><path class="cls-1" d="M156.89,34S140.49,54.22,212,79.66,349.38,132,378,155.35s43.53,37.8,48.79,60.69,3.85,55.08-10.12,76.36-21.87,28.22-21.87,28.22,24.47-38.37,21.87-66.69c-1.14-28.85-6.29-34.54-21.87-52.06-17.69-19.91-63.07-40.25-94.42-50.11s-87.16-25.71-112.81-36-46.78-22-53-32.48c-5.67-7.79-7.94-19.64-.33-29.77S156.89,34,156.89,34"/></clipPath><clipPath id="clip-path-2"><rect class="cls-2" x="-234.84" y="-76.11" width="3861.75" height="3561.56"/></clipPath><clipPath id="clip-path-3"><path class="cls-5" d="M207,11.4c-9.61.13-20.52,1-34.5,10.68-19.45,13.4,7.8,30.75,19.74,36.76s46.94,20,79,31C301.57,101.79,356,123.75,378,139.65a266.58,266.58,0,0,1,28.89,24.19,134.06,134.06,0,0,1,16.69,19.51S422,177,418.94,168c-3.23-8.39-7.52-16.87-19.89-30.26-13.69-13.34-27.35-22.43-49-34.87S258.22,54.2,230.72,40.89s0-26,0-26a63,63,0,0,0-21-3.52"/></clipPath><clipPath id="clip-path-4"><rect class="cls-6" x="-234.84" y="-76.11" width="3861.75" height="3561.56"/></clipPath><clipPath id="clip-path-5"><path class="cls-1" d="M592.57,266.13c0-7.36-6-9.87-11.65-11.46-4.78-1.34-8.89-2.42-8.89-6.19,0-3.09,2.68-4.76,6.79-4.76a25.6,25.6,0,0,1,11,2.84l1.76-6.27a28.68,28.68,0,0,0-12.4-2.84c-7.72,0-13.75,4.6-13.75,11.62s6,9.62,11.4,11.21c4.44,1.33,9.05,2.5,9.05,6.35,0,3.43-3.27,5.44-7.63,5.44a22,22,0,0,1-11.81-3.6l-1.76,6.27a26.49,26.49,0,0,0,13.41,3.6C586.45,278.34,592.57,273.4,592.57,266.13Zm-63-27.43h-6.87V265c0,8.36,4.61,13.22,12,13.22a17.91,17.91,0,0,0,12.9-5.61v5.61l6.87-1.09V238.7h-6.87v28.77a15.82,15.82,0,0,1-10.47,4.18c-5,0-7.55-2.17-7.55-8.87Zm-27,38.3h6.87V219.55l-6.87,1.09Zm-38.89-7.69V247.48A14,14,0,0,1,473,243.8c7.12,0,11.39,5.6,11.39,14.05,0,7.78-4.35,14.22-12.15,14.22A13.12,13.12,0,0,1,463.67,269.31Zm0-27.1v-4.76l-6.87,1.08v58h6.87V277.25a36.26,36.26,0,0,0,8.3,1c11.48,0,19.53-8.95,19.53-20.58s-6.29-20.23-17.1-20.23C469.79,237.45,466.44,239.62,463.67,242.21Z"/></clipPath><clipPath id="clip-path-7"><path class="cls-5" d="M380.66,254.45l-20.07.17c.68-5.16,4.44-10.48,11.19-10.48,6.15,0,8.88,3.86,8.88,9.71Zm-20.41,5.67v-.34c4.87,0,9.31,0,13.15-.09,3.33-.08,6.58-.08,9.06-.08h4.1a20.93,20.93,0,0,0,.85-6.28c0-9.37-5.38-15.38-15-15.38-10.93,0-19.3,8.68-19.3,21.4,0,12,8,20.54,19.81,20.54a25.42,25.42,0,0,0,13.16-3.26l-1.28-6.54a21.63,21.63,0,0,1-11.71,3.27C365.63,273.36,360.5,267.86,360.25,260.12ZM345,276.63l-1.28-6.54a20.19,20.19,0,0,1-11.28,3.27c-7.43,0-12.3-5.33-12.3-14.53,0-8.94,4.36-14.35,12.47-14.35a19.05,19.05,0,0,1,10.85,3.26l1.8-6.44A22.28,22.28,0,0,0,332.65,238c-11.36,0-19.73,8.33-19.73,21,0,12.46,6.92,21,19.22,21A24.46,24.46,0,0,0,345,276.63Zm-50.06,2h7V251.53c0-8.6-4.7-13.58-12.65-13.58-4.53,0-9,2.23-12.72,5.93V238l-7,1.11V278.6h7V249a15.85,15.85,0,0,1,10.25-4.29c5.55,0,8.11,2.23,8.11,9.11Zm-45.61-4.21h.34c1,3.44,3.76,5.76,10.16,5.16l.43-5.93c-3.42,0-3.84-.69-3.84-3.87v-16.5c.25-10.75-4.44-15.3-15.12-15.3a27.42,27.42,0,0,0-14.7,4.55l1.37,6.36c3.67-2.49,8.63-4.38,12.64-4.38,6.41,0,8.8,2.49,8.8,8.94v1.11c-18.28.95-23.32,7-23.32,14.1,0,6.45,5.13,11.26,12.47,11.26C242.79,279.89,246.37,277.92,249.37,274.39Zm.08-15.39v10.66a12.37,12.37,0,0,1-9,4.22c-4.36,0-6.92-2.58-6.92-6.11C233.56,263,237.84,260.47,249.45,259Zm-40.92,19.6h7V219.55l-7,1.12Zm-20.24-4.21h.34c1,3.44,3.76,5.76,10.17,5.16l.42-5.93c-3.41,0-3.84-.69-3.84-3.87v-16.5c.26-10.75-4.44-15.3-15.12-15.3a27.38,27.38,0,0,0-14.69,4.55l1.36,6.36c3.68-2.49,8.63-4.38,12.65-4.38,6.4,0,8.8,2.49,8.8,8.94v1.11c-18.29.95-23.33,7-23.33,14.1,0,6.45,5.13,11.26,12.48,11.26C181.71,279.89,185.3,277.92,188.29,274.39Zm.09-15.39v10.66a12.38,12.38,0,0,1-9,4.22c-4.36,0-6.93-2.58-6.93-6.11C172.48,263,176.76,260.47,188.38,259ZM150,258.92c0,8-4.44,14.61-12.39,14.61a13.35,13.35,0,0,1-8.71-2.83V248.26a14.18,14.18,0,0,1,9.48-3.78C145.66,244.48,150,250.24,150,258.92Zm7.26-.17c0-11.86-6.41-20.8-17.42-20.8-4.7,0-8.12,2.23-10.94,4.9v-23.3l-7,1.12v59.22l7-1.29a32.87,32.87,0,0,0,8.46,1.29C149.08,279.89,157.28,270.7,157.28,258.75Z"/></clipPath><clipPath id="clip-path-9"><path class="cls-1" d="M103.16,254.77l-19.87.17c.67-5.09,4.4-10.35,11.08-10.35,6.09,0,8.79,3.82,8.79,9.59ZM83,260.37V260c4.82,0,9.22,0,13-.08,3.3-.09,6.51-.09,9-.09H109a20.32,20.32,0,0,0,.85-6.19c0-9.25-5.33-15.19-14.8-15.19-10.83,0-19.12,8.57-19.12,21.13,0,11.88,7.95,20.28,19.62,20.28a25.17,25.17,0,0,0,13-3.22l-1.27-6.45a21.47,21.47,0,0,1-11.59,3.22C88.28,273.44,83.2,268,83,260.37ZM72,221.42a18.8,18.8,0,0,0-7.78-1.87c-7.7,0-12.52,4-12.77,14.86l-.08,4.91-6.35,1.88-.34,4.41,6.77.51v32.5h6.93V246h12l.26-6.28H58.42v-5.43c0-5.86,1.78-8.23,5.75-8.23a17.73,17.73,0,0,1,6.18,1.69C70.35,228,72,221.59,72,221.42Zm-42.63,57.2h6.94V238.48l-6.94,1.1Zm8-52.45c0-2.63-1.44-5-4.57-5s-4.57,2.37-4.57,5,1.44,5,4.57,5S37.45,228.8,37.45,226.17ZM8.78,278.62h6.93v-58.3l-6.93,1.1Z"/></clipPath><clipPath id="clip-path-11"><path class="cls-3" d="M776.89,34S760.49,54.22,832,79.66,969.38,132,998,155.35s43.53,37.8,48.79,60.69,3.85,55.08-10.12,76.36-21.87,28.22-21.87,28.22,24.47-38.37,21.87-66.69c-1.14-28.85-6.29-34.54-21.87-52.06-17.69-19.91-63.07-40.25-94.42-50.11s-87.16-25.71-112.81-36-46.78-22-53-32.48c-5.67-7.79-7.94-19.64-.33-29.77S776.89,34,776.89,34"/></clipPath><clipPath id="clip-path-12"><path class="cls-4" d="M827,11.4c-9.61.13-20.52,1-34.5,10.68-19.45,13.4,7.8,30.75,19.74,36.76s46.94,20,79,31C921.57,101.79,976,123.75,998,139.65a266.58,266.58,0,0,1,28.89,24.19,134.06,134.06,0,0,1,16.69,19.51S1042,177,1038.94,168c-3.23-8.39-7.52-16.87-19.89-30.26-13.69-13.34-27.35-22.43-49-34.87S878.22,54.2,850.72,40.89s0-26,0-26a63,63,0,0,0-21-3.52"/></clipPath><clipPath id="clip-path-13"><path class="cls-3" d="M1212.57,266.13c0-7.36-6-9.87-11.65-11.46-4.78-1.34-8.89-2.42-8.89-6.19,0-3.09,2.68-4.76,6.79-4.76a25.6,25.6,0,0,1,11,2.84l1.76-6.27a28.68,28.68,0,0,0-12.4-2.84c-7.72,0-13.75,4.6-13.75,11.62s5.95,9.62,11.4,11.21c4.44,1.33,9,2.5,9,6.35,0,3.43-3.27,5.44-7.63,5.44a22,22,0,0,1-11.81-3.6l-1.76,6.27a26.49,26.49,0,0,0,13.41,3.6C1206.45,278.34,1212.57,273.4,1212.57,266.13Zm-63-27.43h-6.87V265c0,8.36,4.61,13.22,12,13.22a17.91,17.91,0,0,0,12.9-5.61v5.61l6.87-1.09V238.7h-6.87v28.77a15.82,15.82,0,0,1-10.47,4.18c-5,0-7.55-2.17-7.55-8.87Zm-27,38.3h6.87V219.55l-6.87,1.09Zm-38.89-7.69V247.48a14,14,0,0,1,9.31-3.68c7.12,0,11.39,5.6,11.39,14.05,0,7.78-4.35,14.22-12.15,14.22A13.12,13.12,0,0,1,1083.67,269.31Zm0-27.1v-4.76l-6.87,1.08v58h6.87V277.25a36.26,36.26,0,0,0,8.3,1c11.48,0,19.53-8.95,19.53-20.58s-6.29-20.23-17.1-20.23C1089.79,237.45,1086.44,239.62,1083.67,242.21Z"/></clipPath><clipPath id="clip-path-14"><path class="cls-4" d="M1000.66,254.45l-20.07.17c.68-5.16,4.44-10.48,11.19-10.48,6.15,0,8.88,3.86,8.88,9.71Zm-20.41,5.67v-.34c4.87,0,9.31,0,13.15-.09,3.33-.08,6.58-.08,9.06-.08h4.1a20.93,20.93,0,0,0,.85-6.28c0-9.37-5.38-15.38-14.95-15.38-10.93,0-19.3,8.68-19.3,21.4,0,12,8,20.54,19.81,20.54a25.42,25.42,0,0,0,13.16-3.26l-1.28-6.54a21.63,21.63,0,0,1-11.71,3.27C985.63,273.36,980.5,267.86,980.25,260.12ZM965,276.63l-1.28-6.54a20.19,20.19,0,0,1-11.28,3.27c-7.43,0-12.3-5.33-12.3-14.53,0-8.94,4.36-14.35,12.47-14.35a19.05,19.05,0,0,1,10.85,3.26l1.8-6.44A22.28,22.28,0,0,0,952.65,238c-11.36,0-19.73,8.33-19.73,21,0,12.46,6.92,21,19.22,21A24.46,24.46,0,0,0,965,276.63Zm-50.06,2h7V251.53c0-8.6-4.7-13.58-12.65-13.58-4.53,0-9.05,2.23-12.72,5.93V238l-7,1.11V278.6h7V249a15.85,15.85,0,0,1,10.25-4.29c5.55,0,8.11,2.23,8.11,9.11Zm-45.61-4.21h.34c1,3.44,3.76,5.76,10.16,5.16l.43-5.93c-3.42,0-3.84-.69-3.84-3.87v-16.5c.25-10.75-4.44-15.3-15.12-15.3a27.42,27.42,0,0,0-14.7,4.55l1.37,6.36c3.67-2.49,8.63-4.38,12.64-4.38,6.41,0,8.8,2.49,8.8,8.94v1.11c-18.28.95-23.32,7-23.32,14.1,0,6.45,5.13,11.26,12.47,11.26C862.79,279.89,866.37,277.92,869.37,274.39Zm.08-15.39v10.66a12.37,12.37,0,0,1-9,4.22c-4.36,0-6.92-2.58-6.92-6.11C853.56,263,857.84,260.47,869.45,259Zm-40.92,19.6h7V219.55l-7,1.12Zm-20.24-4.21h.34c1,3.44,3.76,5.76,10.17,5.16l.42-5.93c-3.41,0-3.84-.69-3.84-3.87v-16.5c.26-10.75-4.44-15.3-15.12-15.3a27.38,27.38,0,0,0-14.69,4.55l1.36,6.36c3.68-2.49,8.63-4.38,12.65-4.38,6.4,0,8.8,2.49,8.8,8.94v1.11c-18.29.95-23.33,7-23.33,14.1,0,6.45,5.13,11.26,12.48,11.26C801.71,279.89,805.3,277.92,808.29,274.39Zm.09-15.39v10.66a12.38,12.38,0,0,1-9,4.22c-4.36,0-6.93-2.58-6.93-6.11C792.48,263,796.76,260.47,808.38,259ZM770,258.92c0,8-4.44,14.61-12.39,14.61a13.35,13.35,0,0,1-8.71-2.83V248.26a14.18,14.18,0,0,1,9.48-3.78C765.66,244.48,770,250.24,770,258.92Zm7.26-.17c0-11.86-6.41-20.8-17.42-20.8-4.7,0-8.12,2.23-10.94,4.9v-23.3l-7,1.12v59.22l7-1.29a32.87,32.87,0,0,0,8.46,1.29C769.08,279.89,777.28,270.7,777.28,258.75Z"/></clipPath><clipPath id="clip-path-15"><path class="cls-3" d="M723.16,254.77l-19.87.17c.67-5.09,4.4-10.35,11.08-10.35,6.09,0,8.79,3.82,8.79,9.59ZM703,260.37V260c4.82,0,9.22,0,13-.08,3.3-.09,6.51-.09,9-.09H729a20.32,20.32,0,0,0,.85-6.19c0-9.25-5.33-15.19-14.8-15.19-10.83,0-19.12,8.57-19.12,21.13,0,11.88,8,20.28,19.62,20.28a25.17,25.17,0,0,0,13-3.22l-1.27-6.45a21.47,21.47,0,0,1-11.59,3.22C708.28,273.44,703.2,268,703,260.37Zm-10.91-39a18.8,18.8,0,0,0-7.78-1.87c-7.7,0-12.52,4-12.77,14.86l-.08,4.91-6.35,1.88-.34,4.41,6.77.51v32.5h6.93V246h12l.26-6.28H678.42v-5.43c0-5.86,1.78-8.23,5.75-8.23a17.73,17.73,0,0,1,6.18,1.69C690.35,228,692,221.59,692,221.42Zm-42.63,57.2h6.94V238.48l-6.94,1.1Zm8-52.45c0-2.63-1.44-5-4.57-5s-4.57,2.37-4.57,5,1.44,5,4.57,5S657.45,228.8,657.45,226.17Zm-28.67,52.45h6.93v-58.3l-6.93,1.1Z"/></clipPath></defs><title>gruen_duo</title><path class="cls-7" d="M156.89,34S140.49,54.22,212,79.66,349.38,132,378,155.35s43.53,37.8,48.79,60.69,3.85,55.08-10.12,76.36-21.87,28.22-21.87,28.22,24.47-38.37,21.87-66.69c-1.14-28.85-6.29-34.54-21.87-52.06-17.69-19.91-63.07-40.25-94.42-50.11s-87.16-25.71-112.81-36-46.78-22-53-32.48c-5.67-7.79-7.94-19.64-.33-29.77S156.89,34,156.89,34"/><g class="cls-8"><rect class="cls-2" x="-234.84" y="-76.11" width="3861.75" height="3561.56"/><g class="cls-9"><rect class="cls-2" x="121.92" y="26.46" width="315.28" height="301.7"/></g></g><path class="cls-10" d="M207,11.4c-9.61.13-20.52,1-34.5,10.68-19.45,13.4,7.8,30.75,19.74,36.76s46.94,20,79,31C301.57,101.79,356,123.75,378,139.65a266.58,266.58,0,0,1,28.89,24.19,134.06,134.06,0,0,1,16.69,19.51S422,177,418.94,168c-3.23-8.39-7.52-16.87-19.89-30.26-13.69-13.34-27.35-22.43-49-34.87S258.22,54.2,230.72,40.89s0-26,0-26a63,63,0,0,0-21-3.52"/><g class="cls-11"><rect class="cls-6" x="-234.84" y="-76.11" width="3861.75" height="3561.56"/><g class="cls-12"><rect class="cls-6" x="158.12" y="3.84" width="273.04" height="187.05"/></g></g><path class="cls-7" d="M592.57,266.13c0-7.36-6-9.87-11.65-11.46-4.78-1.34-8.89-2.42-8.89-6.19,0-3.09,2.68-4.76,6.79-4.76a25.6,25.6,0,0,1,11,2.84l1.76-6.27a28.68,28.68,0,0,0-12.4-2.84c-7.72,0-13.75,4.6-13.75,11.62s6,9.62,11.4,11.21c4.44,1.33,9.05,2.5,9.05,6.35,0,3.43-3.27,5.44-7.63,5.44a22,22,0,0,1-11.81-3.6l-1.76,6.27a26.49,26.49,0,0,0,13.41,3.6C586.45,278.34,592.57,273.4,592.57,266.13Zm-63-27.43h-6.87V265c0,8.36,4.61,13.22,12,13.22a17.91,17.91,0,0,0,12.9-5.61v5.61l6.87-1.09V238.7h-6.87v28.77a15.82,15.82,0,0,1-10.47,4.18c-5,0-7.55-2.17-7.55-8.87Zm-27,38.3h6.87V219.55l-6.87,1.09Zm-38.89-7.69V247.48A14,14,0,0,1,473,243.8c7.12,0,11.39,5.6,11.39,14.05,0,7.78-4.35,14.22-12.15,14.22A13.12,13.12,0,0,1,463.67,269.31Zm0-27.1v-4.76l-6.87,1.08v58h6.87V277.25a36.26,36.26,0,0,0,8.3,1c11.48,0,19.53-8.95,19.53-20.58s-6.29-20.23-17.1-20.23C469.79,237.45,466.44,239.62,463.67,242.21Z"/><g class="cls-13"><rect class="cls-2" x="-234.84" y="-76.11" width="3861.75" height="3561.56"/><g class="cls-9"><rect class="cls-2" x="449.26" y="212.01" width="150.85" height="92.02"/></g></g><path class="cls-10" d="M380.66,254.45l-20.07.17c.68-5.16,4.44-10.48,11.19-10.48,6.15,0,8.88,3.86,8.88,9.71Zm-20.41,5.67v-.34c4.87,0,9.31,0,13.15-.09,3.33-.08,6.58-.08,9.06-.08h4.1a20.93,20.93,0,0,0,.85-6.28c0-9.37-5.38-15.38-15-15.38-10.93,0-19.3,8.68-19.3,21.4,0,12,8,20.54,19.81,20.54a25.42,25.42,0,0,0,13.16-3.26l-1.28-6.54a21.63,21.63,0,0,1-11.71,3.27C365.63,273.36,360.5,267.86,360.25,260.12ZM345,276.63l-1.28-6.54a20.19,20.19,0,0,1-11.28,3.27c-7.43,0-12.3-5.33-12.3-14.53,0-8.94,4.36-14.35,12.47-14.35a19.05,19.05,0,0,1,10.85,3.26l1.8-6.44A22.28,22.28,0,0,0,332.65,238c-11.36,0-19.73,8.33-19.73,21,0,12.46,6.92,21,19.22,21A24.46,24.46,0,0,0,345,276.63Zm-50.06,2h7V251.53c0-8.6-4.7-13.58-12.65-13.58-4.53,0-9,2.23-12.72,5.93V238l-7,1.11V278.6h7V249a15.85,15.85,0,0,1,10.25-4.29c5.55,0,8.11,2.23,8.11,9.11Zm-45.61-4.21h.34c1,3.44,3.76,5.76,10.16,5.16l.43-5.93c-3.42,0-3.84-.69-3.84-3.87v-16.5c.25-10.75-4.44-15.3-15.12-15.3a27.42,27.42,0,0,0-14.7,4.55l1.37,6.36c3.67-2.49,8.63-4.38,12.64-4.38,6.41,0,8.8,2.49,8.8,8.94v1.11c-18.28.95-23.32,7-23.32,14.1,0,6.45,5.13,11.26,12.47,11.26C242.79,279.89,246.37,277.92,249.37,274.39Zm.08-15.39v10.66a12.37,12.37,0,0,1-9,4.22c-4.36,0-6.92-2.58-6.92-6.11C233.56,263,237.84,260.47,249.45,259Zm-40.92,19.6h7V219.55l-7,1.12Zm-20.24-4.21h.34c1,3.44,3.76,5.76,10.17,5.16l.42-5.93c-3.41,0-3.84-.69-3.84-3.87v-16.5c.26-10.75-4.44-15.3-15.12-15.3a27.38,27.38,0,0,0-14.69,4.55l1.36,6.36c3.68-2.49,8.63-4.38,12.65-4.38,6.4,0,8.8,2.49,8.8,8.94v1.11c-18.29.95-23.33,7-23.33,14.1,0,6.45,5.13,11.26,12.48,11.26C181.71,279.89,185.3,277.92,188.29,274.39Zm.09-15.39v10.66a12.38,12.38,0,0,1-9,4.22c-4.36,0-6.93-2.58-6.93-6.11C172.48,263,176.76,260.47,188.38,259ZM150,258.92c0,8-4.44,14.61-12.39,14.61a13.35,13.35,0,0,1-8.71-2.83V248.26a14.18,14.18,0,0,1,9.48-3.78C145.66,244.48,150,250.24,150,258.92Zm7.26-.17c0-11.86-6.41-20.8-17.42-20.8-4.7,0-8.12,2.23-10.94,4.9v-23.3l-7,1.12v59.22l7-1.29a32.87,32.87,0,0,0,8.46,1.29C149.08,279.89,157.28,270.7,157.28,258.75Z"/><g class="cls-14"><rect class="cls-6" x="-234.84" y="-76.11" width="3861.75" height="3561.56"/><g class="cls-12"><rect class="cls-6" x="114.37" y="212.01" width="280.58" height="75.42"/></g></g><path class="cls-7" d="M103.16,254.77l-19.87.17c.67-5.09,4.4-10.35,11.08-10.35,6.09,0,8.79,3.82,8.79,9.59ZM83,260.37V260c4.82,0,9.22,0,13-.08,3.3-.09,6.51-.09,9-.09H109a20.32,20.32,0,0,0,.85-6.19c0-9.25-5.33-15.19-14.8-15.19-10.83,0-19.12,8.57-19.12,21.13,0,11.88,7.95,20.28,19.62,20.28a25.17,25.17,0,0,0,13-3.22l-1.27-6.45a21.47,21.47,0,0,1-11.59,3.22C88.28,273.44,83.2,268,83,260.37ZM72,221.42a18.8,18.8,0,0,0-7.78-1.87c-7.7,0-12.52,4-12.77,14.86l-.08,4.91-6.35,1.88-.34,4.41,6.77.51v32.5h6.93V246h12l.26-6.28H58.42v-5.43c0-5.86,1.78-8.23,5.75-8.23a17.73,17.73,0,0,1,6.18,1.69C70.35,228,72,221.59,72,221.42Zm-42.63,57.2h6.94V238.48l-6.94,1.1Zm8-52.45c0-2.63-1.44-5-4.57-5s-4.57,2.37-4.57,5,1.44,5,4.57,5S37.45,228.8,37.45,226.17ZM8.78,278.62h6.93v-58.3l-6.93,1.1Z"/><g class="cls-15"><rect class="cls-2" x="-234.84" y="-76.11" width="3861.75" height="3561.56"/><g class="cls-9"><rect class="cls-2" x="1.24" y="212.01" width="116.15" height="75.42"/></g></g><path class="cls-16" d="M776.89,34S760.49,54.22,832,79.66,969.38,132,998,155.35s43.53,37.8,48.79,60.69,3.85,55.08-10.12,76.36-21.87,28.22-21.87,28.22,24.47-38.37,21.87-66.69c-1.14-28.85-6.29-34.54-21.87-52.06-17.69-19.91-63.07-40.25-94.42-50.11s-87.16-25.71-112.81-36-46.78-22-53-32.48c-5.67-7.79-7.94-19.64-.33-29.77S776.89,34,776.89,34"/><g class="cls-17"><rect class="cls-18" x="385.16" y="-76.11" width="3861.75" height="3561.56"/></g><path class="cls-19" d="M827,11.4c-9.61.13-20.52,1-34.5,10.68-19.45,13.4,7.8,30.75,19.74,36.76s46.94,20,79,31C921.57,101.79,976,123.75,998,139.65a266.58,266.58,0,0,1,28.89,24.19,134.06,134.06,0,0,1,16.69,19.51S1042,177,1038.94,168c-3.23-8.39-7.52-16.87-19.89-30.26-13.69-13.34-27.35-22.43-49-34.87S878.22,54.2,850.72,40.89s0-26,0-26a63,63,0,0,0-21-3.52"/><g class="cls-20"><rect class="cls-21" x="385.16" y="-76.11" width="3861.75" height="3561.56"/></g><path class="cls-16" d="M1212.57,266.13c0-7.36-6-9.87-11.65-11.46-4.78-1.34-8.89-2.42-8.89-6.19,0-3.09,2.68-4.76,6.79-4.76a25.6,25.6,0,0,1,11,2.84l1.76-6.27a28.68,28.68,0,0,0-12.4-2.84c-7.72,0-13.75,4.6-13.75,11.62s5.95,9.62,11.4,11.21c4.44,1.33,9,2.5,9,6.35,0,3.43-3.27,5.44-7.63,5.44a22,22,0,0,1-11.81-3.6l-1.76,6.27a26.49,26.49,0,0,0,13.41,3.6C1206.45,278.34,1212.57,273.4,1212.57,266.13Zm-63-27.43h-6.87V265c0,8.36,4.61,13.22,12,13.22a17.91,17.91,0,0,0,12.9-5.61v5.61l6.87-1.09V238.7h-6.87v28.77a15.82,15.82,0,0,1-10.47,4.18c-5,0-7.55-2.17-7.55-8.87Zm-27,38.3h6.87V219.55l-6.87,1.09Zm-38.89-7.69V247.48a14,14,0,0,1,9.31-3.68c7.12,0,11.39,5.6,11.39,14.05,0,7.78-4.35,14.22-12.15,14.22A13.12,13.12,0,0,1,1083.67,269.31Zm0-27.1v-4.76l-6.87,1.08v58h6.87V277.25a36.26,36.26,0,0,0,8.3,1c11.48,0,19.53-8.95,19.53-20.58s-6.29-20.23-17.1-20.23C1089.79,237.45,1086.44,239.62,1083.67,242.21Z"/><g class="cls-22"><rect class="cls-18" x="385.16" y="-76.11" width="3861.75" height="3561.56"/></g><path class="cls-19" d="M1000.66,254.45l-20.07.17c.68-5.16,4.44-10.48,11.19-10.48,6.15,0,8.88,3.86,8.88,9.71Zm-20.41,5.67v-.34c4.87,0,9.31,0,13.15-.09,3.33-.08,6.58-.08,9.06-.08h4.1a20.93,20.93,0,0,0,.85-6.28c0-9.37-5.38-15.38-14.95-15.38-10.93,0-19.3,8.68-19.3,21.4,0,12,8,20.54,19.81,20.54a25.42,25.42,0,0,0,13.16-3.26l-1.28-6.54a21.63,21.63,0,0,1-11.71,3.27C985.63,273.36,980.5,267.86,980.25,260.12ZM965,276.63l-1.28-6.54a20.19,20.19,0,0,1-11.28,3.27c-7.43,0-12.3-5.33-12.3-14.53,0-8.94,4.36-14.35,12.47-14.35a19.05,19.05,0,0,1,10.85,3.26l1.8-6.44A22.28,22.28,0,0,0,952.65,238c-11.36,0-19.73,8.33-19.73,21,0,12.46,6.92,21,19.22,21A24.46,24.46,0,0,0,965,276.63Zm-50.06,2h7V251.53c0-8.6-4.7-13.58-12.65-13.58-4.53,0-9.05,2.23-12.72,5.93V238l-7,1.11V278.6h7V249a15.85,15.85,0,0,1,10.25-4.29c5.55,0,8.11,2.23,8.11,9.11Zm-45.61-4.21h.34c1,3.44,3.76,5.76,10.16,5.16l.43-5.93c-3.42,0-3.84-.69-3.84-3.87v-16.5c.25-10.75-4.44-15.3-15.12-15.3a27.42,27.42,0,0,0-14.7,4.55l1.37,6.36c3.67-2.49,8.63-4.38,12.64-4.38,6.41,0,8.8,2.49,8.8,8.94v1.11c-18.28.95-23.32,7-23.32,14.1,0,6.45,5.13,11.26,12.47,11.26C862.79,279.89,866.37,277.92,869.37,274.39Zm.08-15.39v10.66a12.37,12.37,0,0,1-9,4.22c-4.36,0-6.92-2.58-6.92-6.11C853.56,263,857.84,260.47,869.45,259Zm-40.92,19.6h7V219.55l-7,1.12Zm-20.24-4.21h.34c1,3.44,3.76,5.76,10.17,5.16l.42-5.93c-3.41,0-3.84-.69-3.84-3.87v-16.5c.26-10.75-4.44-15.3-15.12-15.3a27.38,27.38,0,0,0-14.69,4.55l1.36,6.36c3.68-2.49,8.63-4.38,12.65-4.38,6.4,0,8.8,2.49,8.8,8.94v1.11c-18.29.95-23.33,7-23.33,14.1,0,6.45,5.13,11.26,12.48,11.26C801.71,279.89,805.3,277.92,808.29,274.39Zm.09-15.39v10.66a12.38,12.38,0,0,1-9,4.22c-4.36,0-6.93-2.58-6.93-6.11C792.48,263,796.76,260.47,808.38,259ZM770,258.92c0,8-4.44,14.61-12.39,14.61a13.35,13.35,0,0,1-8.71-2.83V248.26a14.18,14.18,0,0,1,9.48-3.78C765.66,244.48,770,250.24,770,258.92Zm7.26-.17c0-11.86-6.41-20.8-17.42-20.8-4.7,0-8.12,2.23-10.94,4.9v-23.3l-7,1.12v59.22l7-1.29a32.87,32.87,0,0,0,8.46,1.29C769.08,279.89,777.28,270.7,777.28,258.75Z"/><g class="cls-23"><rect class="cls-21" x="385.16" y="-76.11" width="3861.75" height="3561.56"/></g><path class="cls-16" d="M723.16,254.77l-19.87.17c.67-5.09,4.4-10.35,11.08-10.35,6.09,0,8.79,3.82,8.79,9.59ZM703,260.37V260c4.82,0,9.22,0,13-.08,3.3-.09,6.51-.09,9-.09H729a20.32,20.32,0,0,0,.85-6.19c0-9.25-5.33-15.19-14.8-15.19-10.83,0-19.12,8.57-19.12,21.13,0,11.88,8,20.28,19.62,20.28a25.17,25.17,0,0,0,13-3.22l-1.27-6.45a21.47,21.47,0,0,1-11.59,3.22C708.28,273.44,703.2,268,703,260.37Zm-10.91-39a18.8,18.8,0,0,0-7.78-1.87c-7.7,0-12.52,4-12.77,14.86l-.08,4.91-6.35,1.88-.34,4.41,6.77.51v32.5h6.93V246h12l.26-6.28H678.42v-5.43c0-5.86,1.78-8.23,5.75-8.23a17.73,17.73,0,0,1,6.18,1.69C690.35,228,692,221.59,692,221.42Zm-42.63,57.2h6.94V238.48l-6.94,1.1Zm8-52.45c0-2.63-1.44-5-4.57-5s-4.57,2.37-4.57,5,1.44,5,4.57,5S657.45,228.8,657.45,226.17Zm-28.67,52.45h6.93v-58.3l-6.93,1.1Z"/><g class="cls-24"><rect class="cls-18" x="385.16" y="-76.11" width="3861.75" height="3561.56"/></g></svg>